<?xml version="1.0" encoding="UTF-8"?>
<svg id="_レイヤー_1" data-name="レイヤー 1" xmlns="http://www.w3.org/2000/svg" viewBox="0 0 524.59 126.86">
  <defs>
    <style>
      .cls-1 {
        fill: #c2996b;
      }

      .cls-2 {
        fill: #fff;
      }

      .cls-3 {
        fill: #8dc798;
      }

      .cls-4 {
        fill: none;
      }

      .cls-5 {
        fill: #896138;
      }

      .cls-6 {
        fill: #231815;
      }
    </style>
  </defs>
  <g>
    <path class="cls-6" d="M83.28,124.33h-3.25c-1.13,0-2.05-.92-2.05-2.05s.92-2.05,2.05-2.05h3.25c5.17,0,9.15-1.38,11.82-4.11,2.38-2.42,3.26-5.41,3.59-7.35H4.24c1.36,9.73,12.26,11.31,13.49,11.46h54.71c1.13,0,2.05,.92,2.05,2.05s-.92,2.05-2.05,2.05H17.62c-.07,0-.14,0-.2-.01-6.02-.6-17.41-5.05-17.41-17.61,0-1.13,.92-2.05,2.05-2.05H100.93c1.12,0,2.03,.89,2.05,2.01,0,.29,.08,7.18-4.95,12.32-3.47,3.54-8.44,5.34-14.76,5.34Z"/>
    <path class="cls-6" d="M76.19,51.49h-13.53c-4.74,0-4.8-.02-8.08-1.01-.74-.22-1.62-.49-2.73-.81-6.34-1.82-11.56-2.01-11.84-2.02h-13.41v-3.87h49.59v7.71Z"/>
    <path class="cls-6" d="M95.45,39.91H15.18c-1.05,0-1.9,.85-1.9,1.9v7.78c0,1.05,.85,1.9,1.9,1.9s1.88-.84,1.9-1.87c0,0,0-.02,0-.02s0-.02,0-.02v-5.78h5.75v39.07c0,9,7.29,16.29,16.29,16.29h24.62c9,0,16.29-7.29,16.29-16.29V43.78h5.5v40.28c0,.35,0,.7-.03,1.04-1.06,10.97-10.31,19.55-21.56,19.55h-25.2c-11.96,0-21.66-9.7-21.66-21.66v-25.78s0-.02,0-.02,0-.02,0-.02c-.01-1.04-.86-1.87-1.9-1.87s-1.9,.85-1.9,1.9v27.03c0,3.58,.92,6.95,2.54,9.88,4.12,8.5,12.83,14.35,22.91,14.35h25.28c11.79,0,21.7-8.02,24.6-18.89h6.84v-.12h0c8.33,0,15.08-6.75,15.08-15.08v-19.38c0-8.33-6.75-15.08-15.08-15.08Zm-5.98,28.75v-17.31h4.31c2.87,0,5.2,2.33,5.2,5.2v16.32c0,2.87-2.33,5.2-5.2,5.2h-4.31v-9.41Zm17.15,4.3c0,6.99-5.67,12.66-12.66,12.66h-4.49v-3.83h4.59c4.82,0,8.73-3.91,8.73-8.73v-16.69c0-4.82-3.91-8.73-8.73-8.73h-4.59v-3.95h4.49c6.99,0,12.66,5.67,12.66,12.66v16.61Z"/>
    <path class="cls-2" d="M76.19,51.49h-13.53c-4.74,0-4.8-.02-8.08-1.01-.74-.22-1.62-.49-2.73-.81-6.34-1.82-11.56-2.01-11.84-2.02h-13.41v-3.87h49.59v7.71Z"/>
    <path class="cls-3" d="M78.67,43.73H24.31c-.15,0-.29-.02-.44-.05-.21-.04-5.18-1.19-5.18-9.21,0-.11,0-.23,.03-.34,.39-2.2,2.07-5.99,5.8-7.32-.41-1.42-.6-3.26,.17-5.11,.02-.04,.04-.08,.06-.12,.09-.19,2.38-4.6,8.7-4.6h8.28s.08,0,.13,0c.44,.03,11.18-.8,17.18-13.86,.34-.73,1.08-1.2,1.91-1.18,.82,.02,1.56,.51,1.86,1.25,0,0,4.5,14.08,7.72,14.08,3.03,0,5.61,1.56,6.92,4.17,.94,1.89,1.05,4.01,.36,5.91,2.1,1.06,5.02,3.05,5.88,6.22,.81,3-.38,6.2-3.52,9.5-.39,.41-.93,.64-1.5,.64Z"/>
    <path class="cls-2" d="M24.69,39.72h53.06c1.7-1.96,2.36-3.68,1.98-5.11-.64-2.38-4.11-3.96-5.4-4.37-.64-.2-1.14-.7-1.33-1.32s-.07-1.31,.34-1.82c1.08-1.34,.93-2.89,.43-3.9-.29-.58-1.18-1.92-3.22-1.92-5.11,0-7.56-4.55-8.24-7.37l-1.64-5.23c-7.2,11.28-17.86,12.34-18.97,12.3h-8.23c-3.45,0-4.8,2-4.99,2.31-.69,1.8,.65,3.92,.66,3.94,.41,.62,.45,1.4,.09,2.05-.36,.65-1.05,1.05-1.81,1.05-3.45,0-4.43,3.53-4.61,4.32,.04,3.76,1.42,4.81,1.88,5.06Z"/>
    <path class="cls-2" d="M42.09,25.54l-2.05,.12C17.15,27.05,13.63,2.6,13.59,2.35l-.31-2.35,2.37,.03c.25,0,24.94,.57,26.32,23.47l.12,2.05Z"/>
    <path class="cls-3" d="M18.19,4.35c1.37,5.29,5.93,16.94,19.47,17.26-1.95-13.45-14.05-16.55-19.47-17.26Z"/>
    <circle class="cls-6" cx="38.04" cy="34.34" r="1.86"/>
    <circle class="cls-6" cx="47.56" cy="28.61" r="1.86"/>
    <circle class="cls-6" cx="64.68" cy="32.48" r="1.86"/>
    <circle class="cls-6" cx="59.04" cy="22.97" r="1.86"/>
    <path class="cls-1" d="M76.19,80.04H26.6v-28.65h1.83s1.92,0,1.92,0h9.6s5,.18,10.87,1.87c1.09,.31,1.96,.58,2.68,.79,3.6,1.08,3.99,1.17,9.16,1.17h13.53v24.82Z"/>
    <path class="cls-5" d="M63.54,95.35h-24.29c-6.61,0-12.03-5.07-12.59-11.54h49.48c-.56,6.46-5.98,11.54-12.59,11.54Z"/>
  </g>
  <path class="cls-6" d="M155.12,37.2h-16.68v-9.89c0-2.88-.18-4.67-.53-5.38-.36-.72-1.14-1.07-2.36-1.07-1.37,0-2.24,.43-2.61,1.3-.37,.87-.55,2.74-.55,5.62v26.43c0,2.76,.18,4.57,.55,5.41,.37,.84,1.2,1.26,2.49,1.26s2.05-.42,2.44-1.27c.38-.85,.57-2.83,.57-5.95v-7.15h16.68v2.22c0,5.89-.47,10.07-1.41,12.53s-3.01,4.62-6.22,6.47c-3.21,1.86-7.16,2.78-11.86,2.78s-8.91-.78-12.08-2.35c-3.17-1.57-5.27-3.74-6.3-6.52-1.03-2.78-1.54-6.95-1.54-12.53v-16.62c0-4.1,.16-7.17,.47-9.23,.32-2.05,1.26-4.02,2.83-5.92,1.57-1.9,3.75-3.39,6.54-4.48,2.79-1.09,5.99-1.63,9.61-1.63,4.91,0,8.96,.84,12.16,2.53,3.2,1.68,5.29,3.78,6.3,6.3s1.51,6.43,1.51,11.74v5.4Z"/>
  <path class="cls-6" d="M167.61,11.23v5.85c.63-.52,1.31-.9,2.04-1.16,.73-.26,1.51-.39,2.34-.39,1.28,0,2.37,.29,3.27,.87s1.45,1.24,1.65,2c.2,.75,.3,2.13,.3,4.14v14.69h-7.31v-15c0-1.24-.07-2.04-.21-2.39-.14-.35-.45-.53-.93-.53-.45,0-.75,.18-.91,.55-.16,.36-.24,1.09-.24,2.17v15.21h-7.31V11.23h7.31Z"/>
  <path class="cls-6" d="M197.82,23.4v5.22c0,1.92-.11,3.32-.33,4.22-.22,.89-.68,1.73-1.39,2.51-.71,.78-1.63,1.35-2.74,1.72s-2.4,.55-3.85,.55c-1.62,0-2.99-.16-4.11-.47-1.12-.31-1.99-.79-2.62-1.43-.62-.64-1.06-1.41-1.33-2.31-.27-.9-.4-2.26-.4-4.07v-5.46c0-1.98,.24-3.53,.72-4.64s1.35-2.01,2.61-2.68c1.26-.68,2.86-1.01,4.82-1.01,1.64,0,3.05,.22,4.23,.65s2.08,1,2.72,1.69c.64,.7,1.08,1.41,1.31,2.15s.35,1.86,.35,3.37Zm-7.31-1.61c0-1.09-.07-1.78-.2-2.06s-.42-.43-.85-.43-.72,.14-.87,.43-.22,.97-.22,2.06v9.62c0,1.01,.07,1.66,.22,1.97s.43,.46,.85,.46,.72-.14,.86-.42c.14-.28,.21-.88,.21-1.8v-9.83Z"/>
  <path class="cls-6" d="M217.94,23.96h-6.9v-2.46c0-.86-.08-1.44-.24-1.74-.16-.31-.45-.46-.87-.46s-.71,.13-.85,.4c-.14,.27-.22,.87-.22,1.8v10.05c0,.76,.11,1.33,.33,1.71,.22,.38,.54,.57,.96,.57,.49,0,.83-.2,1-.6,.17-.4,.26-1.14,.26-2.25v-2.54h6.52c-.01,1.7-.08,2.98-.21,3.83-.13,.85-.53,1.72-1.21,2.62-.68,.89-1.57,1.57-2.67,2.02-1.1,.45-2.46,.68-4.07,.68-2.06,0-3.7-.31-4.91-.94-1.21-.63-2.06-1.5-2.56-2.63-.5-1.13-.75-2.73-.75-4.81v-6.05c0-1.81,.21-3.17,.62-4.09,.41-.92,1.29-1.74,2.62-2.47,1.34-.72,2.97-1.08,4.89-1.08s3.54,.36,4.89,1.08c1.35,.72,2.25,1.62,2.7,2.71,.45,1.09,.67,2.64,.67,4.64Z"/>
  <path class="cls-6" d="M238.21,23.4v5.22c0,1.92-.11,3.32-.33,4.22-.22,.89-.68,1.73-1.39,2.51-.71,.78-1.63,1.35-2.74,1.72s-2.4,.55-3.85,.55c-1.62,0-2.99-.16-4.11-.47-1.12-.31-1.99-.79-2.62-1.43-.62-.64-1.06-1.41-1.33-2.31-.27-.9-.4-2.26-.4-4.07v-5.46c0-1.98,.24-3.53,.72-4.64s1.35-2.01,2.61-2.68c1.26-.68,2.86-1.01,4.82-1.01,1.64,0,3.05,.22,4.23,.65s2.08,1,2.72,1.69c.64,.7,1.08,1.41,1.31,2.15s.35,1.86,.35,3.37Zm-7.31-1.61c0-1.09-.07-1.78-.2-2.06s-.42-.43-.85-.43-.72,.14-.87,.43-.22,.97-.22,2.06v9.62c0,1.01,.07,1.66,.22,1.97s.43,.46,.85,.46,.72-.14,.86-.42c.14-.28,.21-.88,.21-1.8v-9.83Z"/>
  <path class="cls-6" d="M249.71,11.23v26h-7.53V11.23h7.53Z"/>
  <path class="cls-6" d="M260.42,24.17h-6.86v-1.43c0-1.65,.21-2.92,.64-3.81,.43-.89,1.29-1.68,2.58-2.37,1.29-.68,2.97-1.03,5.03-1.03,2.47,0,4.34,.39,5.59,1.16,1.25,.78,2.01,1.73,2.26,2.86,.25,1.13,.38,3.46,.38,6.98v10.7h-7.11v-1.9c-.45,.76-1.02,1.33-1.73,1.71-.71,.38-1.55,.57-2.52,.57-1.28,0-2.45-.32-3.52-.96-1.07-.64-1.6-2.03-1.6-4.18v-1.75c0-1.59,.28-2.68,.85-3.26,.57-.58,1.97-1.25,4.22-2.02,2.4-.84,3.69-1.4,3.86-1.69,.17-.29,.25-.88,.25-1.77,0-1.11-.09-1.84-.28-2.18-.19-.34-.5-.51-.93-.51-.49,0-.8,.14-.92,.43-.12,.28-.18,1.02-.18,2.21v2.23Zm2.32,2.92c-1.17,.76-1.85,1.4-2.04,1.91s-.28,1.25-.28,2.22c0,1.1,.08,1.82,.24,2.14,.16,.32,.49,.48,.97,.48s.76-.13,.9-.38c.14-.25,.21-.91,.21-1.98v-4.38Z"/>
  <path class="cls-6" d="M281.83,13.07v3.36h1.97v3.37h-1.97v11.4c0,1.4,.08,2.18,.24,2.34,.16,.16,.84,.24,2.04,.24v3.44h-2.95c-1.67,0-2.85-.06-3.57-.18-.71-.12-1.34-.41-1.88-.85-.54-.44-.88-.95-1.01-1.53-.13-.57-.2-1.92-.2-4.04v-10.82h-1.57v-3.37h1.57v-3.36h7.33Z"/>
  <path class="cls-6" d="M303.53,26.95h-9.47v4.61c0,.96,.08,1.58,.24,1.86,.16,.28,.46,.42,.91,.42,.56,0,.93-.18,1.11-.55s.28-1.08,.28-2.14v-2.81h6.93v1.57c0,1.32-.09,2.33-.28,3.04-.19,.71-.62,1.46-1.31,2.27s-1.56,1.4-2.62,1.81c-1.06,.4-2.38,.6-3.97,.6s-2.91-.2-4.09-.6c-1.18-.4-2.1-.94-2.76-1.63-.66-.69-1.11-1.45-1.37-2.28-.25-.83-.38-2.04-.38-3.62v-6.21c0-1.86,.28-3.33,.85-4.41,.57-1.08,1.5-1.9,2.79-2.47s2.78-.86,4.45-.86c2.05,0,3.74,.34,5.08,1.04,1.33,.69,2.27,1.61,2.81,2.75,.54,1.14,.81,2.74,.81,4.81v2.83Zm-7.33-3.47v-1.56c0-1.1-.07-1.82-.2-2.14s-.4-.48-.81-.48c-.51,0-.82,.14-.94,.41-.12,.27-.18,1.01-.18,2.21v1.56h2.14Z"/>
  <path class="cls-6" d="M223.17,46.63h-9.26c-6.51,0-11.45,5.31-12.83,10.91l-3.66,18.42-3.48-18.42c-1.47-5.78-6.51-10.91-13.01-10.91h-9.35c-6.78,0-11.27,5.31-11.27,11.91v9.4c0,1.39,1.13,2.52,2.52,2.52s2.52-1.13,2.52-2.52v-9.4c0-3.85,2.47-6.6,6.23-6.6h9.35c3.85,0,7.15,3.03,8.06,6.87l8.07,33.36c.09,.28,.18,.46,.27,.46,.28,0,.37-.09,.37-.46l8.34-33.36c.91-3.76,4.12-6.87,7.88-6.87h9.26c3.85,0,6.32,2.75,6.32,6.6v55.63c0,4.03-1.56,6.78-6.88,6.78s-6.78-2.47-6.78-6.78v-40.69h-1.1l-10.17,41.43c-.92,3.66-2.84,5.5-7.15,5.5s-6.23-1.65-7.15-5.5l-10.08-41.43h-1.19v40.69c0,4.03-1.56,6.78-6.87,6.78s-6.78-2.47-6.78-6.78v-36.39c0-1.39-1.13-2.52-2.52-2.52s-2.52,1.13-2.52,2.52v36.39c0,8.16,4.86,12.1,11.82,12.1s11.45-3.85,11.45-12.1l-.28-11.45,2.57,13.47c.82,6.23,5.59,8.98,11.55,8.98s10.17-2.29,11.55-8.98l2.56-13.47-.27,11.45c0,8.25,4.31,12.1,11.36,12.1s11.92-3.85,11.92-12.1V58.54c0-6.69-4.68-11.91-11.37-11.91Z"/>
  <path class="cls-3" d="M503.1,74.72c21.42,1.03,18.81-18.06,18.81-18.06-21.42-1.03-18.81,18.06-18.81,18.06Z"/>
  <path class="cls-6" d="M446.2,98.37h-12.61v-2.96c0-3.42,.39-6.05,1.18-7.9s2.37-3.49,4.74-4.91c2.37-1.42,5.46-2.13,9.25-2.13,4.55,0,7.98,.8,10.28,2.41,2.31,1.61,3.69,3.58,4.16,5.92,.47,2.34,.7,7.16,.7,14.46v22.16h-13.08v-3.94c-.82,1.58-1.88,2.76-3.18,3.55-1.3,.79-2.85,1.18-4.64,1.18-2.35,0-4.51-.66-6.47-1.98s-2.95-4.21-2.95-8.67v-3.63c0-3.31,.52-5.56,1.56-6.76s3.63-2.6,7.75-4.19c4.41-1.73,6.78-2.9,7.09-3.49s.47-1.82,.47-3.66c0-2.31-.17-3.81-.52-4.51s-.92-1.05-1.71-1.05c-.91,0-1.48,.29-1.7,.88s-.33,2.11-.33,4.58v4.63Zm4.26,6.06c-2.15,1.58-3.4,2.9-3.74,3.96s-.52,2.6-.52,4.59c0,2.29,.15,3.76,.45,4.43s.89,1,1.78,1,1.39-.26,1.65-.78,.38-1.89,.38-4.11v-9.08Z"/>
  <path class="cls-6" d="M488.62,71.54v6.82c-2.77,0-4.41,.13-4.91,.38s-.75,.98-.75,2.18v1.4h5.66v6.99h-3.19v36.11h-13.44v-36.11h-2.76v-6.99h2.76c0-2.91,.1-4.85,.3-5.82s.69-1.85,1.48-2.61c.79-.77,1.89-1.35,3.31-1.75s3.63-.6,6.62-.6h4.93Z"/>
  <path class="cls-6" d="M524.59,104.12v-5.86c0-4.28-.49-7.6-1.48-9.97s-2.71-4.26-5.16-5.69c-2.45-1.43-5.56-2.15-9.33-2.15-3.08,0-5.81,.59-8.19,1.78-2.37,1.19-4.08,2.9-5.12,5.12-1.04,2.23-1.56,5.27-1.56,9.13v12.88c0,3.28,.23,5.78,.7,7.5,.47,1.72,1.3,3.29,2.51,4.73,1.21,1.43,2.9,2.56,5.07,3.38,2.17,.82,4.68,1.23,7.52,1.23s5.36-.42,7.3-1.25c1.94-.83,3.54-2.08,4.81-3.74,1.26-1.66,2.07-3.23,2.41-4.69,.34-1.46,.52-3.56,.52-6.29v-3.26h-12.75v5.82c0,2.2-.17,3.68-.52,4.44-.34,.77-1.03,1.15-2.05,1.15-.82,0-1.38-.29-1.66-.87-.29-.58-.43-1.86-.43-3.86v-9.55h17.4Zm-17.4-10.42c0-2.48,.11-4.01,.33-4.58s.8-.85,1.73-.85c.75,0,1.25,.33,1.5,1,.24,.67,.37,2.14,.37,4.43v3.23h-3.93v-3.23Z"/>
  <path class="cls-4" d="M250.82,63.82c5.06,0,6.59-3.25,6.59-6.32,0-2.89-1.53-6.23-6.59-6.23s-6.5,3.07-6.5,6.23,1.53,6.32,6.5,6.32Z"/>
  <path d="M250.82,68.88c4.7,0,11.29-2.89,11.29-11.38,0-7.95-5.78-11.47-11.29-11.47s-11.2,3.61-11.2,11.47c0,8.67,6.68,11.38,11.2,11.38Zm0-17.61c5.06,0,6.59,3.34,6.59,6.23,0,3.07-1.53,6.32-6.59,6.32s-6.5-3.16-6.5-6.32,1.53-6.23,6.5-6.23Z"/>
  <path d="M250.82,70.51c-6.23,0-11.2,2.8-11.2,11.2v3.13c0,1.3,1.05,2.35,2.35,2.35s2.35-1.05,2.35-2.35v-3.13c0-3.61,1.53-6.05,6.5-6.05s6.59,2.71,6.59,6.14v33.78c0,3.52-1.53,6.14-6.59,6.14s-6.5-2.35-6.5-6.05v-21.44c0-1.3-1.05-2.35-2.35-2.35s-2.35,1.05-2.35,2.35v21.44c0,9.12,6.32,11.2,11.2,11.2s11.29-2.35,11.29-11.29v-33.78c0-8.4-5.06-11.29-11.29-11.29Z"/>
  <path d="M302.91,67.88h-9.1c-2.58,0-5.41,.34-7.98,1.46-2.32-2.4-5.67-3.01-7.98-3.01-4.72,0-10.65,2.23-10.65,10.73v25.12c0,1.23,1,2.23,2.23,2.23s2.23-1,2.23-2.23v-25.12c0-3.43,1.46-5.75,6.18-5.75,4.21,0,5.84,1.97,6.18,4.72,2.23-1.89,5.06-3.18,9.79-3.18h9.1c10.9,0,16.31,6.7,16.31,17.43v25.84c0,3.35-1.46,5.75-6.27,5.75s-6.18-2.23-6.18-5.75v-22.41c0-4.21-2.4-7.21-7.04-7.21h-8.33c-4.89,0-7.3,2.75-7.3,7.04v22.58c0,3.35-1.46,5.75-6.27,5.75s-6.18-2.23-6.18-5.75v-5.01c0-1.23-1-2.23-2.23-2.23s-2.23,1-2.23,2.23v5.01c0,8.76,6.01,10.73,10.65,10.73s10.73-2.32,10.73-10.73v-22.58c0-1.2,.09-2.06,2.83-2.06h8.33c2.23,0,2.58,.86,2.58,2.23v22.41c0,8.67,6.1,10.73,10.65,10.73s10.73-2.32,10.73-10.73v-25.84c0-14.59-8.41-22.41-20.78-22.41Z"/>
  <path d="M374.23,91.27c7.58,0,10.44-6.24,10.44-12.49s-2.94-12.31-10.35-12.31h-11.95c0-7.76-3.75-12.67-11.15-12.67-5.35,0-9.19,2.59-10.53,7.58-.54,1.78-.62,3.57-.71,5.08h-2.23c-7.67,0-10.17,6.69-10.17,12.31s2.5,12.49,10.26,12.49h2.23v15.16c0,13.55,8.79,20.32,19.3,20.42,.03,0,.06,0,.1,0,1.43,0,2.59-1.16,2.59-2.59s-1.16-2.59-2.59-2.59h0c-10.16-.06-14.76-6.64-14.76-15.25v-20.34h-6.87c-3.03,0-5.62-1.7-5.62-7.31s2.5-7.14,5.53-7.14h6.96v-6.16c0-3.39,1.52-6.51,6.51-6.51s6.51,2.94,6.51,6.51v6.16h16.59c2.94,0,5.8,1.61,5.8,7.14s-2.68,7.31-5.89,7.31h-16.5v16.15c0,3.84,2.23,5.17,5.53,5.17h6.51c2.77,0,5.8,1.61,5.8,7.14s-2.77,7.08-5.75,7.13h0c-1.43,0-2.59,1.16-2.59,2.59s1.16,2.59,2.59,2.59c.06,0,.12-.01,.19-.02,7-.18,10.21-6.06,10.21-12.29s-3.12-12.31-10.44-12.31h-6.51c-.54,0-.71,.09-.89,0v-10.97h11.86Z"/>
  <path class="cls-6" d="M428.73,93.55h-16.68v-9.89c0-2.88-.18-4.67-.53-5.38-.36-.72-1.14-1.07-2.36-1.07-1.37,0-2.24,.43-2.61,1.3-.37,.87-.55,2.74-.55,5.62v26.43c0,2.76,.18,4.57,.55,5.41,.37,.84,1.2,1.26,2.49,1.26s2.05-.42,2.44-1.27c.38-.85,.57-2.83,.57-5.95v-7.15h16.68v2.22c0,5.89-.47,10.07-1.41,12.53s-3.01,4.62-6.22,6.47c-3.21,1.86-7.16,2.78-11.86,2.78s-8.91-.78-12.08-2.35c-3.17-1.57-5.27-3.74-6.3-6.52-1.03-2.78-1.54-6.95-1.54-12.53v-16.62c0-4.1,.16-7.17,.47-9.23,.32-2.05,1.26-4.02,2.83-5.92,1.57-1.9,3.75-3.39,6.54-4.48,2.79-1.09,5.99-1.63,9.61-1.63,4.91,0,8.96,.84,12.16,2.53,3.2,1.68,5.29,3.78,6.3,6.3,1,2.51,1.51,6.43,1.51,11.74v5.4Z"/>
</svg>